<mxfile host="Electron" modified="2024-01-04T14:04:12.416Z" agent="Mozilla/5.0 (Macintosh; Intel Mac OS X 10_15_7) AppleWebKit/537.36 (KHTML, like Gecko) draw.io/22.1.16 Chrome/120.0.6099.109 Electron/28.1.0 Safari/537.36" etag="E_ZcPCyuVWTnv_vIK24T" version="22.1.16" type="device">
  <diagram name="Страница — 1" id="a91uecZEz3Ctj0ok2F-G">
    <mxGraphModel dx="1590" dy="1000" grid="1" gridSize="10" guides="1" tooltips="1" connect="1" arrows="1" fold="1" page="1" pageScale="1" pageWidth="827" pageHeight="1169" math="0" shadow="0">
      <root>
        <mxCell id="0" />
        <mxCell id="1" parent="0" />
        <mxCell id="ILgyTuA8rZxsIcQD5cx_-16" value="" style="rounded=0;whiteSpace=wrap;html=1;" vertex="1" parent="1">
          <mxGeometry x="20" width="160" height="720" as="geometry" />
        </mxCell>
        <mxCell id="ILgyTuA8rZxsIcQD5cx_-4" value="Событие" style="rounded=1;whiteSpace=wrap;html=1;fillColor=#ffe6cc;strokeColor=#d79b00;glass=0;" vertex="1" parent="1">
          <mxGeometry x="40" y="80" width="120" height="60" as="geometry" />
        </mxCell>
        <mxCell id="ILgyTuA8rZxsIcQD5cx_-5" value="Модель чтения" style="rounded=1;whiteSpace=wrap;html=1;fillColor=#d5e8d4;strokeColor=#82b366;" vertex="1" parent="1">
          <mxGeometry x="40" y="320" width="120" height="60" as="geometry" />
        </mxCell>
        <mxCell id="ILgyTuA8rZxsIcQD5cx_-6" value="Команда" style="rounded=1;whiteSpace=wrap;html=1;fillColor=#dae8fc;strokeColor=#6c8ebf;" vertex="1" parent="1">
          <mxGeometry x="40" y="160" width="120" height="60" as="geometry" />
        </mxCell>
        <mxCell id="ILgyTuA8rZxsIcQD5cx_-7" value="Внешняя система" style="rounded=1;whiteSpace=wrap;html=1;fillColor=#ED6565;strokeColor=#b85450;glass=0;" vertex="1" parent="1">
          <mxGeometry x="40" y="400" width="120" height="60" as="geometry" />
        </mxCell>
        <mxCell id="ILgyTuA8rZxsIcQD5cx_-8" value="Правило" style="rounded=1;whiteSpace=wrap;html=1;fillColor=#f8cecc;strokeColor=#b85450;" vertex="1" parent="1">
          <mxGeometry x="40" y="480" width="120" height="60" as="geometry" />
        </mxCell>
        <mxCell id="ILgyTuA8rZxsIcQD5cx_-9" value="Актор" style="rounded=1;whiteSpace=wrap;html=1;fillColor=#fff2cc;strokeColor=#d6b656;" vertex="1" parent="1">
          <mxGeometry x="40" y="240" width="120" height="60" as="geometry" />
        </mxCell>
        <mxCell id="ILgyTuA8rZxsIcQD5cx_-10" value="Комментарий" style="rounded=1;whiteSpace=wrap;html=1;glass=0;fillColor=#f5f5f5;fontColor=#333333;strokeColor=#666666;" vertex="1" parent="1">
          <mxGeometry x="40" y="640" width="120" height="60" as="geometry" />
        </mxCell>
        <mxCell id="ILgyTuA8rZxsIcQD5cx_-11" value="Агрегат" style="rounded=1;whiteSpace=wrap;html=1;glass=0;fillColor=#e3c800;fontColor=#000000;strokeColor=#B09500;" vertex="1" parent="1">
          <mxGeometry x="40" y="560" width="120" height="60" as="geometry" />
        </mxCell>
        <mxCell id="ILgyTuA8rZxsIcQD5cx_-15" value="&lt;b&gt;&lt;font style=&quot;font-size: 24px;&quot;&gt;Легенда&lt;/font&gt;&lt;/b&gt;" style="text;html=1;align=center;verticalAlign=middle;resizable=0;points=[];autosize=1;strokeColor=none;fillColor=none;" vertex="1" parent="1">
          <mxGeometry x="40" y="10" width="120" height="40" as="geometry" />
        </mxCell>
      </root>
    </mxGraphModel>
  </diagram>
</mxfile>
